<svg id="Layer_1" data-name="Layer 1" xmlns="http://www.w3.org/2000/svg" viewBox="0 0 102.68 103.92"><defs><style>.cls-1{fill:#ff7f00;}.cls-2{fill:#050526;}.cls-3{fill:none;stroke:#ff7f00;stroke-miterlimit:10;stroke-width:8px;}</style></defs><title>Logo</title><polygon class="cls-1" points="62.88 41.61 55.86 26.42 62.11 26.25 59.53 21.25 45.11 21.25 38.94 40.47 16.89 24.72 16.89 33.5 51.89 58.5 86.89 33.5 86.89 23.88 62.88 41.61"/><rect class="cls-2" x="16.33" y="22.5" width="8.06" height="18.63"/><rect class="cls-2" x="78.28" y="22.5" width="8.06" height="18.63"/><polygon class="cls-3" points="16.33 4 16.33 74 51.33 99 86.33 74 86.33 4 16.33 4"/><polygon class="cls-2" points="12.31 41.13 51.33 69.64 90.39 41.13 102.68 41.13 51.33 78.41 0.02 41.13 12.31 41.13"/><polygon class="cls-1" points="12.29 37.79 51.32 66.3 90.37 37.79 102.67 37.79 51.32 75.08 0 37.79 12.29 37.79"/></svg>